<?xml version="1.0" encoding="UTF-8"?>
<!DOCTYPE svg  PUBLIC '-//W3C//DTD SVG 1.1//EN'  'http://www.w3.org/Graphics/SVG/1.1/DTD/svg11.dtd'>
<svg version="1.1" xmlns="http://www.w3.org/2000/svg">
<defs>
<font id="ChunkFive-Regular" horiz-adv-x="600">
<font-face font-family="ChunkFive" font-weight="400" ascent="750" bbox="-22 -250 1055 933" cap-height="699" descent="-250" panose-1="0 0 5 0 0 0 0 0 0 0" underline-position="-100" underline-thickness="50" unicode-range="U+0020-00FE" units-per-em="1000" x-height="500"/>
<missing-glyph/>
<glyph glyph-name="space" horiz-adv-x="250" unicode=" "/>
<glyph d="M86 257l-54 252v190h239v-190l-53 -252h-132zM28 102q0 51 43 84q31 22 71 22q70 0 103 -52q16 -25 16 -54q0 -57 -51 -86q-30 -17 -68 -17q-61 0 -96 48q-18 27 -18 55z" glyph-name="exclam" horiz-adv-x="308" unicode="!"/>
<glyph d="M35 701h192l-30 -299h-125zM277 701h192l-36 -299h-125z" glyph-name="quotedbl" horiz-adv-x="504" unicode='"'/>
<glyph d="M70 433v136h154l47 183h132l-47 -183h134l47 183h132l-47 -183h113v-136h-147l-29 -114h121v-136h-156l-46 -184l-132 2l46 182h-134l-46 -184l-132 2l46 182h-111v136h146l29 114h-120zM322 433l-29 -114h134l29 114h-134z" glyph-name="numbersign" horiz-adv-x="750" unicode="#"/>
<glyph d="M224 776h141v-104q38 -19 56 -49l8 56h146v-234h-154q0 73 -60 100q-23 11 -51 11q-34 0 -52 -26q-7 -12 -7 -25q0 -33 62 -61q17 -7 56 -22q111 -42 155 -78q63 -55 64 -138q0 -133 -125 -177q-45 -16 -98 -17v-103h-141v131q-28 16 -52 37l-11 -60h-146v241h157 q0 -77 94 -93q14 -2 27 -3q69 5 73 49q0 24 -59 48q-12 4 -39 14q-113 40 -159 79q-67 57 -68 144q0 119 97 171q40 21 86 25v84z" glyph-name="dollar" horiz-adv-x="603" unicode="$"/>
<glyph d="M221 306q-112 0 -169 80q-37 54 -37 127q0 100 77 161q56 43 125 43q128 0 180 -95q26 -48 26 -112q0 -114 -80 -169q-51 -35 -122 -35zM302 0h-113l432 699h114zM221 398q33 0 46 57q6 25 6 55q0 77 -34 105q-10 8 -21 8q-25 1 -42 -41q-12 -30 -12 -69q0 -76 36 -106 q11 -9 21 -9zM714 0q-112 0 -169 80q-37 54 -37 127q0 100 77 161q56 43 125 43q128 0 180 -95q26 -48 26 -112q0 -114 -80 -169q-51 -35 -122 -35zM714 92q33 0 46 57q6 25 6 55q0 77 -34 105q-10 8 -21 8q-25 1 -42 -41q-12 -30 -12 -69q0 -76 36 -106q11 -9 21 -9z" glyph-name="percent" horiz-adv-x="931" unicode="%"/>
<glyph d="M10 205q0 125 140 201q4 2 7 3q-51 33 -68 95q-5 19 -5 37q0 70 65 121q62 49 149 49q136 0 192 -86q26 -40 26 -84q0 -94 -103 -141q-6 -3 -11 -5l93 -93q29 55 52 133h214v-126h-98q-23 -67 -57 -118l62 -61h58v-130h-149l-65 64q-72 -67 -205 -76q-16 -1 -32 -1 q-148 0 -220 89q-45 56 -45 129zM355 538q0 46 -37 58q-10 3 -21 3q-32 0 -46 -34q-4 -11 -4 -21q1 -46 60 -72q7 -3 26 18q21 24 22 48zM197 211q0 -48 45 -68q18 -8 36 -8q65 0 113 37l5 5l-127 125h-4q-50 -31 -64 -70q-4 -12 -4 -21z" glyph-name="ampersand" horiz-adv-x="771" unicode="&amp;"/>
<glyph d="M36 701h198l-36 -299h-125z" glyph-name="quotesingle" horiz-adv-x="273" unicode="'"/>
<glyph d="M260 815l103 -106q-75 -91 -109 -168q-45 -107 -45 -229q0 -221 132 -387q10 -12 22 -27l-103 -107q-115 104 -181 261q-54 130 -54 260q0 204 138 394q48 67 97 109z" glyph-name="parenleft" horiz-adv-x="388" unicode="("/>
<glyph d="M25 708l103 106q89 -77 155 -202q80 -151 80 -301q0 -212 -134 -404q-47 -68 -101 -117l-103 107q92 109 126 220q28 90 28 194q0 207 -136 375q-6 7 -18 22z" glyph-name="parenright" horiz-adv-x="388" unicode=")"/>
<glyph d="M377 394l-91 -70l-79 111l-83 -114l-88 74l87 94l-118 41l41 98l114 -53l-13 124h123l-16 -127l113 56l41 -98l-121 -40z" glyph-name="asterisk" horiz-adv-x="413" unicode="*"/>
<glyph d="M522 435v-130h-183v-183h-130v183h-184v130h184v184h130v-184h183z" glyph-name="plus" horiz-adv-x="547" unicode="+"/>
<glyph d="M109 -194l-115 65q79 99 93 208q6 53 2 117l182 -48q5 -163 -121 -301q-20 -22 -41 -41z" glyph-name="comma" horiz-adv-x="272" unicode=","/>
<glyph d="M25 172v133h290v-133h-290z" glyph-name="hyphen" horiz-adv-x="340" unicode="-"/>
<glyph d="M15 104q0 53 41 88q31 26 72 26q65 0 99 -57q16 -28 16 -57q0 -68 -56 -96q-26 -12 -59 -12q-61 0 -95 51q-18 28 -18 57z" glyph-name="period" horiz-adv-x="258" unicode="."/>
<glyph d="M147 -80l-142 2l372 830h142z" glyph-name="slash" horiz-adv-x="524" unicode="/"/>
<glyph d="M302 -12q-157 0 -233 128q-54 93 -54 237q0 177 96 279q76 80 186 80q195 0 259 -181q28 -79 28 -185q0 -221 -122 -310q-66 -48 -160 -48zM302 143q42 0 65 75q16 54 16 128q0 126 -45 181q-20 23 -42 24q-31 1 -56 -55q-27 -59 -27 -143q0 -122 48 -183q21 -26 41 -27z " glyph-name="zero" horiz-adv-x="599" unicode="0"/>
<glyph d="M71 457l-46 111q71 35 95 53q39 30 80 78h178v-566h93v-133h-400v133h100v371z" glyph-name="one" horiz-adv-x="496" unicode="1"/>
<glyph d="M141 472l-108 114q108 123 260 124q119 0 187 -77q51 -59 51 -142q0 -90 -55 -146q-29 -29 -105 -78q-82 -53 -131 -109q-13 -14 -19 -25h176v80h168v-213h-540v145q55 90 104 135l42 35q18 16 97 71q68 47 78 81q2 8 2 15q-2 65 -84 66q-51 0 -110 -62q-3 -4 -13 -14z " glyph-name="two" horiz-adv-x="590" unicode="2"/>
<glyph d="M248 -13q-96 0 -180 60q-34 26 -53 53l102 106q60 -60 119 -65h13q76 0 88 58q2 10 2 19q-2 72 -83 73h-75v119h73q63 0 80 43q5 13 5 26q0 54 -52 73q-18 6 -36 6q-61 -1 -117 -60l-97 117q48 52 128 80q45 15 86 15q161 0 224 -99q31 -49 31 -113q-1 -70 -74 -127 q92 -68 93 -164q0 -119 -111 -180q-73 -40 -166 -40z" glyph-name="three" horiz-adv-x="540" unicode="3"/>
<glyph d="M10 197v143l288 359h207v-394h53v-108h-53v-65h54v-132h-324v132h63v65h-288zM150 305h148v185z" glyph-name="four" horiz-adv-x="584" unicode="4"/>
<glyph d="M263 -13q-100 0 -189 63q-39 28 -59 58l109 113q75 -72 140 -74q71 0 99 53q11 22 11 47q0 53 -46 81q-26 16 -56 16q-51 -1 -94 -46l-128 57l61 344h396v-149h-269l-17 -97q38 24 108 24q104 0 172 -71q61 -66 61 -166q0 -131 -115 -203q-81 -50 -184 -50z" glyph-name="five" horiz-adv-x="577" unicode="5"/>
<glyph d="M546 631l-68 -130q-78 46 -131 50q-8 1 -15 1q-76 -2 -113 -75q-13 -29 -18 -61q40 40 110 49q11 2 21 2q107 4 176 -69q58 -63 58 -154q0 -116 -83 -189q-71 -60 -176 -64q-140 -4 -221 99q-66 84 -70 214q-4 186 75 296q77 105 219 110q80 2 171 -39q40 -19 65 -40z M306 323q-54 -2 -98 -51q-3 -4 -5 -6q0 -59 37 -95q24 -23 56 -23q52 0 79 42q12 21 12 44q-2 59 -42 80q-18 9 -39 9z" glyph-name="six" horiz-adv-x="581" unicode="6"/>
<glyph d="M15 501v198h541v-133l-269 -566h-216l268 566h-164v-65h-160z" glyph-name="seven" horiz-adv-x="566" unicode="7"/>
<glyph d="M15 205q0 72 53 133q25 28 55 43q-60 36 -73 108q-2 13 -2 25q0 101 84 156q63 41 154 41q145 0 207 -90q32 -47 32 -107q0 -76 -60 -122q-12 -8 -24 -14q74 -36 97 -122q6 -26 6 -51q0 -105 -87 -167q-72 -51 -177 -51q-148 0 -220 89q-45 56 -45 129zM359 522 q0 37 -39 55q-18 8 -36 8q-41 0 -63 -33q-9 -15 -9 -30q0 -57 85 -65q7 -1 14 -1q44 27 48 66zM188 211q0 -47 45 -71q23 -11 48 -11q62 0 84 46q7 17 8 36q0 67 -91 85q-18 3 -36 4q-43 -24 -55 -68q-3 -11 -3 -21z" glyph-name="eight" horiz-adv-x="559" unicode="8"/>
<glyph d="M35 70l68 130q78 -46 131 -50q8 -1 15 -1q89 2 114 79q8 26 8 57q-49 -48 -122 -51q-107 -4 -176 69q-58 63 -58 154q0 116 83 189q71 60 176 64q137 4 221 -94q72 -86 76 -219q5 -207 -90 -315q-77 -87 -210 -91q-80 -2 -171 39q-40 19 -65 40zM275 378q50 3 94 57 q0 74 -40 104q-19 14 -44 14q-52 0 -79 -42q-12 -21 -12 -44q2 -59 42 -80q18 -9 39 -9z" glyph-name="nine" horiz-adv-x="587" unicode="9"/>
<glyph d="M15 402q0 52 41 87q30 25 70 25q65 0 98 -58q15 -27 15 -54q0 -64 -53 -92q-27 -14 -60 -14q-57 0 -92 49q-19 28 -19 57zM15 98q0 52 41 87q30 25 70 25q65 0 98 -58q15 -27 15 -54q0 -61 -52 -91q-27 -15 -61 -15q-60 0 -94 50q-17 27 -17 56z" glyph-name="colon" horiz-adv-x="254" unicode=":"/>
<glyph d="M59 385q0 53 41 88q31 26 72 26q65 0 99 -57q16 -28 16 -57q0 -65 -54 -94q-27 -14 -61 -14q-58 0 -93 50q-20 28 -20 58zM5 -129l115 -65q137 122 159 279q4 32 3 63l-182 48q10 -156 -50 -261q-19 -31 -45 -64z" glyph-name="semicolon" horiz-adv-x="302" unicode=";"/>
<glyph d="M35 339v125l430 177l49 -122l-306 -117l306 -118l-49 -122z" glyph-name="less" horiz-adv-x="549" unicode="&lt;"/>
<glyph d="M25 393v133h412v-133h-412zM25 172v133h412v-133h-412z" glyph-name="equal" horiz-adv-x="462" unicode="="/>
<glyph d="M514 465v-125l-430 -177l-49 122l306 117l-306 118l49 122z" glyph-name="greater" horiz-adv-x="549" unicode="&gt;"/>
<glyph d="M110 477l-108 109q112 128 260 129q133 0 197 -80q41 -52 41 -125q0 -72 -75 -133q-9 -8 -27 -22q-47 -35 -54 -53q-3 -8 -3 -14v-55h-185l-1 80q0 49 71 107l24 18q52 41 61 60q3 8 3 14q-1 46 -74 47q-53 0 -118 -68zM129 102q0 51 43 84q31 22 71 22q70 0 103 -52 q16 -25 16 -54q0 -57 -51 -86q-30 -17 -68 -17q-61 0 -96 48q-18 27 -18 55z" glyph-name="question" horiz-adv-x="520" unicode="?"/>
<glyph d="M389 451q55 -1 98 -52l6 40l99 -13l-40 -285l1 -1q20 -12 37 -12q71 0 94 89q7 29 7 58q0 125 -94 201q-86 70 -218 70q-150 0 -232 -127q-58 -89 -58 -192q0 -124 90 -212q90 -87 219 -87q132 0 222 65l10 8l48 -69l-36 -24q-108 -64 -244 -64q-151 0 -263 96 q-120 102 -129 262q-1 13 -1 25q0 128 72 239q95 148 266 163q18 2 36 2q193 0 303 -117q92 -98 92 -239q0 -106 -53 -172q-49 -59 -131 -60q-64 9 -90 33q-66 -48 -132 -48q-75 0 -130 62q-51 60 -51 142q0 81 54 147q59 71 148 72zM452 152l19 130q-34 68 -82 69 q-53 0 -80 -62q-12 -28 -12 -57q0 -65 40 -94q16 -10 31 -10q43 1 84 24z" glyph-name="at" horiz-adv-x="779" unicode="@"/>
<glyph d="M808 131v-131h-401v131h95l-21 68h-205l-21 -68h78v-131h-318v131h68l135 439h-41v129h384l177 -568h70zM378 535l-65 -216h131z" glyph-name="A" horiz-adv-x="823" unicode="A"/>
<glyph d="M405 0h-380v130h58v440h-58v129h373q231 0 244 -153q1 -9 1 -18q0 -87 -43 -124q-22 -17 -55 -31q101 -28 125 -117q7 -25 7 -53q0 -136 -107 -179q-62 -24 -165 -24zM353 567h-63v-150h61q59 0 67 54q1 11 1 23q0 54 -43 69q-11 4 -23 4zM290 130h80q47 0 70 41 q11 20 11 45q0 65 -52 83q-15 5 -32 5h-77v-174z" glyph-name="B" horiz-adv-x="687" unicode="B"/>
<glyph d="M554 253l117 -128q-113 -125 -267 -139q-19 -2 -36 -2q-180 0 -276 118q-77 95 -77 241q0 166 109 276q81 83 178 91q9 1 17 1q99 0 151 -64q2 -2 3 -4l23 56h157v-284h-179q-4 85 -58 114q-22 12 -48 12q-63 0 -97 -79q-22 -52 -22 -119q0 -102 59 -155q37 -33 87 -33 q15 0 30.5 4t28.5 10t26 14.5t22.5 16.5t19.5 17.5t15 15.5t11 13z" glyph-name="C" horiz-adv-x="686" unicode="C"/>
<glyph d="M326 0h-301v133h62v434h-62v132h305q197 0 302 -121q78 -90 78 -219q0 -220 -159 -308q-92 -51 -225 -51zM480 359q0 124 -64 178q-36 30 -86 30h-38v-434h38q107 2 139 126q11 45 11 100z" glyph-name="D" horiz-adv-x="720" unicode="D"/>
<glyph d="M25 567v132h603v-221h-173v89h-160v-138h190v-133h-190v-163h160v93h173v-226h-603v133h63v434h-63z" glyph-name="E" horiz-adv-x="653" unicode="E"/>
<glyph d="M25 567v132h598v-221h-177v89h-151v-174h190v-133h-190v-127h102v-133h-372v133h62v434h-62z" glyph-name="F" horiz-adv-x="638" unicode="F"/>
<glyph d="M521 0l-31 63q-27 -45 -98 -64q-31 -8 -63 -8q-139 0 -227 100q-87 99 -87 252q0 163 100 271q94 93 207 97q126 0 186 -73q8 -9 9 -11l21 72h149v-295h-179q-3 81 -62 114q-24 13 -52 13q-69 0 -110 -74q-27 -51 -27 -114q0 -106 59 -156q34 -28 78 -28q68 1 96 49v42 h-61v107h332v-107h-40v-250h-200z" glyph-name="G" horiz-adv-x="776" unicode="G"/>
<glyph d="M25 567v132h324v-132h-62v-151h190v151h-59v132h325v-132h-58v-435h58v-132h-325v132h59v151h-190v-151h62v-132h-324v132h55v435h-55z" glyph-name="H" horiz-adv-x="768" unicode="H"/>
<glyph d="M25 567v132h332v-132h-62v-434h62v-133h-332v133h63v434h-63z" glyph-name="I" horiz-adv-x="382" unicode="I"/>
<glyph d="M21 -193l-1 132q20 -9 45 -9q82 2 83 144v494h-86v131h376v-131h-83v-494q0 -206 -147 -258q-57 -20 -135 -20q-25 0 -52 11z" glyph-name="J" horiz-adv-x="463" unicode="J"/>
<glyph d="M340 699v-129h-54v-163l186 163h-72v129h333v-129h-58l-145 -125l202 -315h58v-130h-390v130h68l-108 170l-74 -63v-107h54v-130h-315v130h54v440h-54v129h315z" glyph-name="K" horiz-adv-x="815" unicode="K"/>
<glyph d="M25 567v132h316v-132h-53v-434h129v127h168v-260h-560v133h55v434h-55z" glyph-name="L" horiz-adv-x="610" unicode="L"/>
<glyph d="M723 523h-4q-16 -92 -29 -134l-105 -389h-209l-112 399q-17 58 -21 124h-4v-394h57v-129h-271v129h54v441h-53v129h379l101 -374l96 374h381v-129h-55v-440h55v-130h-316v130h57l-1 334v59z" glyph-name="M" horiz-adv-x="1008" unicode="M"/>
<glyph d="M791 699v-129h-66v-570h-215l-255 381v-252h77v-129h-307v129h59v441h-58v129h287l246 -367l-1 238h-68v129h301z" glyph-name="N" horiz-adv-x="816" unicode="N"/>
<glyph d="M373 -18q-197 0 -291 130q-67 95 -67 241q0 172 109 274q97 91 242 91q242 0 323 -182q36 -81 36 -190q0 -213 -138 -306q-87 -58 -214 -58zM373 139q59 0 86 85q16 52 16 122q0 161 -65 205q-21 13 -45 13q-54 1 -83 -80q-20 -55 -20 -131q0 -137 58 -191q24 -23 53 -23 z" glyph-name="O" horiz-adv-x="740" unicode="O"/>
<glyph d="M25 568v131h324q223 0 264 -129q12 -36 12 -85q0 -115 -110 -167q-66 -31 -153 -31h-76v-155h61v-132h-322v132h56v436h-56zM336 569h-50v-174h45q72 0 92 51q6 15 6 32q0 75 -67 89q-13 2 -26 2z" glyph-name="P" horiz-adv-x="640" unicode="P"/>
<glyph d="M357 0q-192 0 -281 129q-61 89 -61 225q0 165 105 263q93 85 231 85q238 0 312 -184q30 -74 30 -171q-1 -160 -83 -250q18 -64 44 -65q20 1 20 45v29h66v-51q0 -97 -67 -139q-36 -21 -83 -21q-96 0 -143 84q-7 14 -12 27q-37 -6 -78 -6zM357 347q58 -1 112 -39q2 24 2 39 q0 118 -53 177q-30 31 -68 32q-50 1 -85 -66q-30 -58 -30 -136q0 -33 4 -55q47 48 118 48zM357 150q28 1 53 22q-11 75 -43 83q-5 1 -10 1q-42 -2 -67 -73q31 -33 67 -33z" glyph-name="Q" horiz-adv-x="755" unicode="Q"/>
<glyph d="M25 568v131h325q216 0 262 -113q15 -38 15 -93q0 -79 -74 -121q-32 -18 -71 -24q67 -10 106 -66q25 -36 25 -76q1 -67 24 -68q22 2 23 32v33h67v-55q0 -125 -93 -153q-24 -7 -53 -7q-164 0 -190 137q-4 23 -4 49q0 74 -19 94q-21 19 -81 19v-155h61v-132h-323v132h56v436 h-56zM337 569h-50v-170h45q77 0 93 57q3 12 3 24q-9 84 -91 89z" glyph-name="R" horiz-adv-x="737" unicode="R"/>
<glyph d="M200 0h-175v252h186q0 -84 103 -98q12 -1 23 -2q84 1 85 50q0 25 -66 46q-14 4 -45 13q-130 36 -184 74q-88 63 -89 167q0 115 103 177q64 38 135 38q141 0 200 -87q5 -8 9 -15l10 84h172v-251h-181q0 73 -65 103q-29 13 -63 13q-39 0 -59 -26q-10 -13 -10 -27 q0 -35 72 -64q20 -7 66 -23q129 -43 180 -80q77 -59 78 -147q0 -129 -123 -183q-64 -29 -142 -29q-124 0 -202 84q-4 5 -7 8z" glyph-name="S" horiz-adv-x="710" unicode="S"/>
<glyph d="M15 699h671v-260h-147v128h-84v-434h83v-133h-372v133h82v434h-86v-128h-147v260z" glyph-name="T" horiz-adv-x="701" unicode="T"/>
<glyph d="M15 569v130h318v-129h-54v-215q0 -156 53 -186q19 -10 47 -10q60 0 82 52q19 47 19 144v212h-54v132h296v-129h-54v-245q0 -248 -142 -314q-60 -28 -147 -28q-307 2 -308 342v244h-56z" glyph-name="U" horiz-adv-x="737" unicode="U"/>
<glyph d="M420 224h5q4 46 36 127l91 218h-52l-1 130h284v-130h-49l-240 -569h-184l-265 569h-55v130h369l-1 -130h-54l85 -224q28 -88 31 -121z" glyph-name="V" horiz-adv-x="773" unicode="V"/>
<glyph d="M320 226h5q2 24 49 248l50 225h208l63 -276q19 -90 30 -197h5q8 87 30 191l34 152h-55v130h286v-130h-55l-149 -569h-237l-60 238q-13 49 -25 124h-4q-7 -50 -24 -122l-61 -240h-232l-132 569h-56v130h330v-130h-58l26 -146q14 -60 32 -197z" glyph-name="W" horiz-adv-x="1015" unicode="W"/>
<glyph d="M357 129v-129h-332v129h87l147 191l-181 249h-52v130h396v-130h-58l98 -133l102 133h-88v130h332v-130h-85l-151 -193l180 -246h58v-130h-399v130h57l-97 130l-103 -131h89z" glyph-name="X" horiz-adv-x="835" unicode="X"/>
<glyph d="M369 384h4q3 12 37 86l55 101h-55v128h269v-128h-54l-185 -325v-116h56v-130h-320v130h57v118l-194 323h-49v128h342v-128h-52l58 -106q3 -8 14 -36q15 -35 17 -45z" glyph-name="Y" horiz-adv-x="669" unicode="Y"/>
<glyph d="M201 436h-170v263h656l2 -133l-366 -434h185l1 128h177v-260h-661v130l364 437l-189 -1z" glyph-name="Z" horiz-adv-x="714" unicode="Z"/>
<glyph d="M312 719h-159v-794h159v-126h-282v1046h282v-126z" glyph-name="bracketleft" horiz-adv-x="312" unicode="["/>
<glyph d="M519 -78l-142 -2l-372 832h142z" glyph-name="backslash" horiz-adv-x="524" unicode="\"/>
<glyph d="M282 845v-1046h-282v126h159v794h-159v126h282z" glyph-name="bracketright" horiz-adv-x="312" unicode="]"/>
<glyph d="M227 700h145l215 -397h-178l-109 224l-112 -224h-178z" glyph-name="asciicircum" horiz-adv-x="597" unicode="^"/>
<glyph d="M25 -1v83h649v-83h-649z" glyph-name="underscore" horiz-adv-x="699" unicode="_"/>
<glyph d="M50 699l152 20l150 -115l-112 -20z" glyph-name="grave" unicode="`"/>
<glyph d="M78 342l-42 116q119 71 218 71q148 0 220 -73q51 -53 51 -133v-195h60v-128h-214l-24 45q-42 -59 -125 -64h-10q-100 0 -156 59q-41 44 -41 108q0 97 83 150q54 34 125 34q61 0 96 -32l3 -3v35q-7 54 -95 56q-66 0 -149 -46zM258 111q39 0 61 29q2 2 3 4v38 q-19 28 -59 29q-55 -5 -58 -53q0 -34 34 -44q9 -3 19 -3z" glyph-name="a" unicode="a"/>
<glyph d="M256 0h-225v130h42v489h-42v131h242v-289q27 32 95 44q19 3 36 3q123 0 187 -101q45 -70 43 -161q-3 -146 -95 -215q-57 -42 -136 -42q-76 0 -121 36q-5 4 -11 9zM414 244q0 69 -35 105q-17 18 -37 18q-38 0 -59 -49q-14 -34 -12 -79q0 -71 38 -105q17 -15 34 -15 q44 0 63 61q8 29 8 64z" glyph-name="b" horiz-adv-x="656" unicode="b"/>
<glyph d="M507 274h-147q-4 90 -50 103q-7 2 -13 2q-57 0 -79 -68q-9 -28 -9 -60q0 -72 51 -103q23 -14 52 -15q68 0 121 57l88 -102q-65 -71 -170 -94q-38 -8 -75 -8q-134 0 -211 85q-64 71 -64 182q0 156 112 222q59 34 134 34q77 0 125 -57l17 48h118v-226z" glyph-name="c" horiz-adv-x="531" unicode="c"/>
<glyph d="M368 472v148h-46v130h249v-620h48v-130h-234l-17 37q-51 -45 -126 -46q-112 0 -179 94q-53 73 -53 170q0 129 87 202q63 53 145 53q68 -1 126 -38zM225 255q0 -69 35 -105q17 -18 37 -18q38 0 59 49q14 34 12 79q0 71 -38 105q-17 15 -34 15q-44 0 -63 -61q-8 -29 -8 -64 z" glyph-name="d" horiz-adv-x="634" unicode="d"/>
<glyph d="M443 166l84 -97q-95 -83 -239 -87h-19q-114 0 -189 73q-75 74 -75 198q0 139 101 211q71 50 168 50q124 0 197 -76q29 -32 42 -69q22 -63 11 -133q-3 -20 -9 -36h-315q13 -60 58 -75q20 -7 45 -7q83 1 140 48zM280 379q-60 0 -74 -63q-2 -9 -3 -17h151q-2 67 -51 78 q-11 2 -23 2z" glyph-name="e" horiz-adv-x="542" unicode="e"/>
<glyph d="M411 743l-60 -115q-23 10 -55 10q-31 -2 -32 -53v-85h91v-130h-91v-239h60v-131h-298v131h40v239h-41v130h41v85q0 124 97 165q43 18 101 18q80 0 137 -21q6 -2 10 -4z" glyph-name="f" horiz-adv-x="386" unicode="f"/>
<glyph d="M24 -117l53 111q40 -35 107 -54q36 -10 67 -10q93 0 112 67q4 14 4 27v34q-38 -49 -104 -54q-7 -1 -13 -1q-152 0 -211 119q-29 58 -29 131q0 159 110 223q59 34 141 34q58 0 100 -36q4 -3 6 -5l20 31h238v-131h-60v-299q0 -175 -140 -241q-72 -33 -172 -34 q-124 1 -218 78q-6 6 -11 10zM223 255q0 -69 35 -105q17 -18 37 -18q38 0 59 49q14 34 12 79q0 71 -38 105q-17 15 -34 15q-44 0 -63 -61q-8 -29 -8 -64z" glyph-name="g" horiz-adv-x="640" unicode="g"/>
<glyph d="M339 131v-131h-314v131h42v489h-42v130h242v-312q14 22 60 50q52 30 97 30q145 0 169 -140q6 -34 6 -80v-167h47v-131h-257v272q0 68 -27 85q-14 8 -32 8q-62 -1 -63 -93v-141h72z" glyph-name="h" horiz-adv-x="661" unicode="h"/>
<glyph d="M53 646q0 49 41 80q29 22 67 22q63 0 95 -52q15 -25 15 -50q0 -62 -52 -88q-26 -13 -58 -13q-58 0 -91 49q-17 25 -17 52zM305 131v-131h-280v131h42v239h-42v130h232v-369h48z" glyph-name="i" horiz-adv-x="330" unicode="i"/>
<glyph d="M114 646q0 49 41 80q29 22 67 22q63 0 95 -52q15 -25 15 -50q0 -62 -52 -88q-26 -13 -58 -13q-58 0 -91 49q-17 25 -17 52zM128 70v300h-42v130h232v-430q0 -203 -158 -258q-62 -21 -146 -21v134q108 0 114 117v28z" glyph-name="j" horiz-adv-x="360" unicode="j"/>
<glyph d="M305 0h-267v130h41v489h-41v131h231v-452l116 69h-72v132h280v-132h-77l-68 -43l135 -193h50v-131h-296v131h42l-76 108l-35 -24v-84h37v-131z" glyph-name="k" horiz-adv-x="654" unicode="k"/>
<glyph d="M317 131v-131h-292v131h43v490h-42v129h232v-619h59z" glyph-name="l" horiz-adv-x="332" unicode="l"/>
<glyph d="M322 131v-131h-297v131h42v236h-42v132h189l22 -59q62 72 125 73q100 0 146 -67q2 -3 3 -5q65 71 147 72q149 0 178 -140q9 -41 9 -100v-138h49v-135h-254v245q0 72 -2 82q-8 41 -36 42q-47 0 -52 -55q-1 -8 -1 -18v-162h60v-134h-259v255q0 85 -13 102q-10 12 -29 12 q-42 -10 -45 -60v-178h60z" glyph-name="m" horiz-adv-x="908" unicode="m"/>
<glyph d="M333 131v-131h-308v131h42v239h-42v130h213l23 -62q59 79 143 80q167 0 180 -184q1 -17 1 -36v-167h47v-131h-252v273q0 58 -15 76q-15 17 -41 17q-62 -1 -63 -93v-142h72z" glyph-name="n" horiz-adv-x="647" unicode="n"/>
<glyph d="M290 -13q-127 0 -206 77q-74 73 -73 188q1 133 104 207q75 53 170 53q147 -2 223 -97q53 -68 55 -167q2 -139 -102 -211q-72 -50 -171 -50zM290 115q43 0 60 67q8 30 8 66q0 95 -44 125q-14 8 -29 9q-37 0 -57 -56q-12 -34 -12 -75q0 -92 43 -125q15 -11 31 -11z" glyph-name="o" horiz-adv-x="574" unicode="o"/>
<glyph d="M25 -204v131h42v440h-42v133h229l17 -35q59 43 121 43q134 0 198 -108q38 -66 38 -154q0 -139 -90 -210q-59 -47 -138 -47q-84 0 -130 39v-101h54v-131h-299zM413 244q0 69 -35 105q-17 18 -37 18q-38 0 -59 -49q-14 -34 -12 -79q0 -71 38 -105q17 -15 34 -15q44 0 63 61 q8 29 8 64z" glyph-name="p" horiz-adv-x="638" unicode="p"/>
<glyph d="M318 -230v131h65v132q-52 -42 -128 -42q-109 0 -175 85q-55 72 -55 177q0 159 109 224q56 33 130 33q71 0 112 -33q5 -4 7 -7l19 30h233v-130h-49v-466h49v-134h-317zM383 257q0 69 -35 105q-17 18 -37 18q-38 0 -59 -49q-14 -34 -12 -79q0 -71 38 -105q17 -15 34 -15 q44 0 63 61q8 29 8 64z" glyph-name="q" horiz-adv-x="660" unicode="q"/>
<glyph d="M308 131v-131h-283v131h44v239h-43v130h188l30 -64q26 49 59 65q36 17 96 17v-173q-102 0 -128 -50q-13 -24 -13 -61v-103h50z" glyph-name="r" horiz-adv-x="414" unicode="r"/>
<glyph d="M140 0h-125v180h134q0 -47 71 -63q19 -4 35 -4q43 2 44 34q0 19 -54 34q-88 24 -93 26q-128 54 -133 160q0 85 86 125q44 20 90 20q78 0 127 -49q14 -14 22 -29l8 66h123v-180h-130q0 39 -47 63q-27 13 -55 13q-35 -6 -39 -36q0 -21 58 -41q9 -3 29 -9l36 -12 q88 -30 119 -59q42 -39 42 -101q0 -81 -78 -124q-48 -26 -108 -26q-85 0 -137 53q-10 10 -16 20z" glyph-name="s" horiz-adv-x="508" unicode="s"/>
<glyph d="M15 370v130h54v92l184 59v-151h95v-130h-95v-178q0 -50 3 -60q8 -19 29 -20q23 0 63 17v-128q-46 -16 -121 -19q-108 0 -138 65q-17 38 -20 145v178h-54z" glyph-name="t" horiz-adv-x="363" unicode="t"/>
<glyph d="M15 368v132h242v-241q0 -107 35 -122q9 -4 19 -4q39 0 56 39q7 18 7 37v159h-66v132h259v-367h49v-133h-189l-27 63q-32 -36 -46 -47q-41 -30 -96 -30q-135 0 -176 92q-25 55 -25 152v138h-42z" glyph-name="u" horiz-adv-x="631" unicode="u"/>
<glyph d="M326 162h4q3 47 30 110l48 101h-53v127h258v-127h-52l-173 -373h-155l-186 373h-47v127h304v-127h-50l46 -106q22 -64 26 -105z" glyph-name="v" horiz-adv-x="613" unicode="v"/>
<glyph d="M282 153h2q10 132 41 235l32 112h185l38 -130q29 -92 43 -217h2q9 94 27 158l17 59h-41v130h244v-130h-41l-117 -370h-211l-69 226l-72 -226h-206l-113 370h-43v130h269v-130h-34l22 -73q20 -68 25 -144z" glyph-name="w" horiz-adv-x="872" unicode="w"/>
<glyph d="M375 375v125h255v-125h-66l-106 -107l126 -144h47v-124h-319v124h47l-76 81l-72 -81h65v-124h-256v124h67l102 115l-124 136h-45v125h324v-125h-47l70 -76l75 76h-67z" glyph-name="x" horiz-adv-x="649" unicode="x"/>
<glyph d="M317 217l65 156h-46v127h254v-124h-48l-190 -462q-34 -74 -76 -103q-54 -38 -139 -38q-68 5 -121 50l75 118q34 -29 58 -34q37 -7 59 40q3 7 5 13l14 42l-195 370h-41v128h308v-127h-47z" glyph-name="y" horiz-adv-x="580" unicode="y"/>
<glyph d="M155 300h-130v200h495v-129l-238 -240h105v68h141v-199h-503v131l241 240h-111v-71z" glyph-name="z" horiz-adv-x="553" unicode="z"/>
<glyph d="M314 722q-61 0 -80 -51q-18 -51 -7 -160q12 -129 -70 -208q82 -82 70 -209q-17 -171 41 -202q18 -9 46 -9v-133q-119 0 -176 83q-42 64 -33 159q17 177 -28 224q-18 18 -47 23v127q62 10 76 90q9 55 -1 157q-13 143 81 206q54 36 128 36v-133z" glyph-name="braceleft" horiz-adv-x="314" unicode="{"/>
<glyph d="M100 701h133v-905h-133v905z" glyph-name="bar" horiz-adv-x="333" unicode="|"/>
<glyph d="M209 613q-17 -177 28 -224q18 -18 47 -23v-127q-62 -10 -76 -90q-9 -55 1 -157q13 -143 -81 -206q-54 -36 -128 -36v133q61 0 80 51q18 51 7 160q-12 128 70 209q-82 80 -70 208q17 171 -41 202q-18 9 -46 9v133q119 0 176 -83q42 -64 33 -159z" glyph-name="braceright" horiz-adv-x="314" unicode="}"/>
<glyph d="M142 699q74 0 106 -53q13 -24 13 -50q0 -57 -51 -88q-30 -18 -68 -18q-68 0 -100 55q-14 25 -14 51q0 50 47 82q30 21 67 21zM86 441h132l53 -252v-190h-239v190z" glyph-name="exclamdown" horiz-adv-x="308" unicode="¡"/>
<glyph d="M433 190l88 -102q-65 -71 -170 -94q-38 -8 -75 -8q-12 0 -33 2l-33 -131h-68l36 143q-118 37 -159 146q-18 49 -18 107q0 156 112 222q59 34 134 34q32 0 58 -10l51 200h68l-60 -238q6 -6 8 -9l17 48h118v-226h-147q-2 56 -23 84l-56 -220q17 -5 31 -5q68 0 121 57z M209 251q0 -37 16 -67l49 191q-51 -16 -63 -92q-2 -16 -2 -32z" glyph-name="cent" horiz-adv-x="531" unicode="¢"/>
<glyph d="M377 133v80h168v-213h-512v111q74 50 85 120q1 11 1 20q0 17 -13 53h-106v99h71q-12 45 -12 88q0 116 91 177q63 42 147 42q153 -1 260 -124l-108 -114q-49 52 -79 66q-22 10 -44 10q-83 -2 -84 -66q0 -27 21 -79h173v-99h-140q4 -28 4 -44q-1 -56 -42 -127h119z" glyph-name="sterling" horiz-adv-x="577" unicode="£"/>
<glyph d="M503 394q59 -86 33 -189q-10 -41 -33 -75l89 -89l-65 -65l-89 89q-86 -59 -189 -33q-41 10 -75 33l-89 -89l-65 65l89 89q-59 86 -33 189q10 41 33 75l-89 89l65 65l89 -89q86 59 189 33q41 -10 75 -33l89 89l65 -65zM386 182q42 43 30 103q-7 34 -30 57q-43 42 -103 30 q-34 -7 -57 -30q-42 -43 -30 -103q7 -34 30 -57q43 -42 103 -30q34 7 57 30z" glyph-name="currency" horiz-adv-x="612" unicode="¤"/>
<glyph d="M410 699h269v-128h-54l-112 -197h102v-69h-141l-34 -59h175v-69h-175v-47h56v-130h-320v130h57v47h-166v69h166v2l-34 57h-132v69h90l-118 197h-49v128h342v-128h-52l58 -106q3 -8 14 -36q15 -35 17 -45h4q3 12 37 86l55 101h-55v128z" glyph-name="yen" horiz-adv-x="669" unicode="¥"/>
<glyph d="M100 701h133v-354h-133v354zM100 199h133v-403h-133v403z" glyph-name="brokenbar" horiz-adv-x="333" unicode="¦"/>
<glyph d="M90 535q-43 0 -63 38q-9 17 -9 35q0 41 37 62q17 9 35 9q42 0 63 -37q9 -17 9 -34q0 -43 -38 -64q-16 -9 -34 -9zM320 535q-43 0 -64 38q-9 17 -9 35q0 40 37 61q17 10 36 10q41 0 62 -37q9 -16 9 -34q0 -43 -37 -64q-16 -9 -34 -9z" glyph-name="dieresis" unicode="¨"/>
<glyph d="M369 -14q-144 0 -248 99q-103 99 -110 240q-1 11 -1 20q0 144 99 248q99 103 240 110q11 1 20 1q143 0 247 -99q103 -99 110 -240q1 -11 1 -20q0 -144 -99 -248q-98 -102 -238 -110q-11 -1 -21 -1zM369 19q133 0 227 93q96 100 98 233q0 134 -94 229q-99 95 -231 97 q-134 0 -229 -94q-96 -98 -97 -232q0 -134 94 -229q98 -96 232 -97zM535 363h-106q-2 68 -38 75q-4 1 -7 1q-44 0 -59 -55q-5 -18 -5 -38q0 -57 42 -77q15 -7 32 -8q49 0 88 41l63 -73q-53 -58 -139 -71q-19 -3 -38 -3q-106 0 -161 72q-37 50 -37 121q0 120 90 165 q39 20 87 20q53 0 91 -41l12 34h85v-163z" glyph-name="copyright" horiz-adv-x="737" unicode="©"/>
<glyph d="M312 460l-141 -230l141 -230h-151l-141 230l141 230h151zM540 460l-141 -230l141 -230h-151l-141 230l141 230h151z" glyph-name="guillemotleft" horiz-adv-x="570" unicode="«"/>
<glyph d="M251 221q-106 0 -178 79q-63 70 -63 163q0 107 79 178q70 63 162 63q106 0 177 -79q63 -70 63 -162q0 -106 -78 -178q-70 -64 -162 -64zM251 251q95 0 159 72q53 61 53 140q0 96 -73 159q-60 53 -139 53q-96 0 -160 -73q-53 -60 -53 -139q0 -96 73 -160q61 -52 140 -52z M137 544v48h121q93 0 102 -58q1 -9 1 -18q0 -37 -41 -51q-7 -2 -13 -3q33 -5 45 -34q4 -10 4 -19q1 -24 8 -25q8 2 9 12v12h25v-20q-2 -58 -54 -59q-71 2 -72 69q0 33 -13 38q-8 4 -24 4v-58h22v-49h-120v49h21v162h-21zM253 544h-18v-63h16q35 2 36 30q-2 32 -34 33z" glyph-name="registered" horiz-adv-x="501" unicode="®"/>
<glyph d="M50 678h450v-83h-450v83z" glyph-name="macron" unicode="¯"/>
<glyph d="M127 553q-57 0 -89 47q-18 28 -18 59q0 58 49 90q27 17 58 17q56 0 89 -47q18 -28 18 -60q0 -56 -48 -88q-28 -18 -59 -18zM127 603q33 0 49 30q7 13 7 26q0 34 -31 51q-12 6 -25 6q-36 0 -51 -33q-6 -12 -6 -24q0 -35 32 -50q12 -6 25 -6z" glyph-name="degree" horiz-adv-x="254" unicode="°"/>
<glyph d="M352 699l-190 -115l-112 20l150 115z" glyph-name="acute" unicode="´"/>
<glyph d="M15 332q0 53 41 88q31 26 72 26q65 0 99 -57q16 -28 16 -57q0 -68 -56 -96q-26 -12 -59 -12q-61 0 -95 51q-18 28 -18 57z" glyph-name="periodcentered" horiz-adv-x="258" unicode="·"/>
<glyph d="M96 -103l10 117h52l-4 -70q13 23 49 31q9 2 17 3q59 4 90 -41q18 -26 18 -61q0 -70 -68 -102q-33 -15 -69 -15q-77 0 -119 43l-2 2l49 47q22 -22 68 -21q50 7 52 41q-2 40 -38 41q-24 0 -37 -20q-2 -4 -3 -7z" glyph-name="cedilla" unicode="¸"/>
<glyph d="M171 460l141 -230l-141 -230h-151l141 230l-141 230h151zM403 460l141 -230l-141 -230h-151l141 230l-141 230h151z" glyph-name="guillemotright" horiz-adv-x="574" unicode="»"/>
<glyph d="M391 459q0 -51 -43 -84q-31 -22 -71 -22q-70 0 -103 52q-16 25 -16 54q0 57 51 86q30 17 68 17q61 0 96 -48q18 -27 18 -55zM518 -25l-108 109q-57 -67 -112 -80q-10 -2 -18 -2q-73 2 -74 47q0 23 52 64q62 49 79 69q28 34 28 66l-1 80h-185v-55q0 -24 -45 -58 q-58 -45 -75 -65q-39 -45 -39 -99q0 -122 103 -175q58 -30 135 -30q149 1 260 129z" glyph-name="questiondown" horiz-adv-x="520" unicode="¿"/>
<glyph d="M261 898l152 20l150 -115l-112 -20zM808 131v-131h-401v131h95l-21 68h-205l-21 -68h78v-131h-318v131h68l135 439h-41v129h384l177 -568h70zM378 535l-65 -216h131z" glyph-name="Agrave" horiz-adv-x="823" unicode="À"/>
<glyph d="M563 898l-190 -115l-112 20l150 115zM808 131v-131h-401v131h95l-21 68h-205l-21 -68h78v-131h-318v131h68l135 439h-41v129h384l177 -568h70zM378 535l-65 -216h131z" glyph-name="Aacute" horiz-adv-x="823" unicode="Á"/>
<glyph d="M412 836l-66 -88l-116 35l135 115h93l135 -115l-116 -35zM738 131h70v-131h-401v131h95l-21 68h-205l-21 -68h78v-131h-318v131h68l135 439h-41v129h384zM313 319h131l-66 216z" glyph-name="Acircumflex" horiz-adv-x="823" unicode="Â"/>
<glyph d="M479 753q-37 -1 -75 36q-28 28 -41 30h-8q-20 -2 -41 -42q-4 -8 -5 -12l-71 43q27 92 101 98h4q38 2 76 -36q28 -28 41 -30h8q21 2 44 48l3 6l70 -43q-30 -94 -106 -98zM808 131v-131h-401v131h95l-21 68h-205l-21 -68h78v-131h-318v131h68l135 439h-41v129h384l177 -568 h70zM378 535l-65 -216h131z" glyph-name="Atilde" horiz-adv-x="823" unicode="Ã"/>
<glyph d="M297 734q-43 0 -63 38q-9 17 -9 35q0 41 37 62q17 9 35 9q42 0 63 -37q9 -17 9 -34q0 -43 -38 -64q-16 -9 -34 -9zM527 734q-43 0 -64 38q-9 17 -9 35q0 40 37 61q17 10 36 10q41 0 62 -37q9 -16 9 -34q0 -43 -37 -64q-16 -9 -34 -9zM808 131v-131h-401v131h95l-21 68 h-205l-21 -68h78v-131h-318v131h68l135 439h-41v129h384l177 -568h70zM378 535l-65 -216h131z" glyph-name="Adieresis" horiz-adv-x="823" unicode="Ä"/>
<glyph d="M412 729q-55 0 -86 47q-16 26 -16 55q0 55 47 86q26 16 55 16q55 0 86 -47q16 -26 16 -55q0 -55 -47 -86q-26 -16 -55 -16zM412 794q24 0 34 23q3 7 3 14q0 24 -23 34q-7 3 -14 3q-24 0 -34 -23q-3 -7 -3 -14q0 -24 23 -34q7 -3 14 -3zM808 131v-131h-401v131h95l-21 68 h-205l-21 -68h78v-131h-318v131h68l135 439h-41v129h384l177 -568h70zM378 535l-65 -216h131z" glyph-name="Aring" horiz-adv-x="823" unicode="Å"/>
<glyph d="M1055 478h-173v89h-160v-138h190v-133h-190v-163h160v93h173v-226h-648v131h94v68h-206l-40 -68h78v-131h-318v131h68l257 439h-41v129h756v-221zM501 319v256l-136 -256h136z" glyph-name="AE" horiz-adv-x="1080" unicode="Æ"/>
<glyph d="M368 -16h-13l-2 -40q13 23 49 31q9 2 17 3q59 4 90 -41q18 -26 18 -61q0 -70 -68 -102q-33 -15 -69 -15q-77 0 -119 43l-2 2l49 47q22 -22 68 -21q50 7 52 41q-2 40 -38 41q-24 0 -37 -20q-2 -4 -3 -7l-65 12l8 92q-161 23 -237 151q-51 86 -51 203q0 166 109 276 q81 83 178 91q9 1 17 1q99 0 151 -64q2 -2 3 -4l23 56h157v-284h-179q-4 85 -58 114q-22 12 -48 12q-63 0 -97 -79q-22 -52 -22 -119q0 -102 59 -155q37 -33 87 -33q15 0 30.5 4t28.5 10t26 14.5t22.5 16.5t19.5 17.5t15 15.5t11 13l6 7l117 -128q-113 -125 -267 -139 q-19 -2 -36 -2z" glyph-name="Ccedilla" horiz-adv-x="686" unicode="Ç"/>
<glyph d="M176 898l152 20l150 -115l-112 -20zM25 567v132h603v-221h-173v89h-160v-138h190v-133h-190v-163h160v93h173v-226h-603v133h63v434h-63z" glyph-name="Egrave" horiz-adv-x="653" unicode="È"/>
<glyph d="M478 898l-190 -115l-112 20l150 115zM25 567v132h603v-221h-173v89h-160v-138h190v-133h-190v-163h160v93h173v-226h-603v133h63v434h-63z" glyph-name="Eacute" horiz-adv-x="653" unicode="É"/>
<glyph d="M327 836l-66 -88l-116 35l135 115h93l135 -115l-116 -35zM628 478h-173v89h-160v-138h190v-133h-190v-163h160v93h173v-226h-603v133h63v434h-63v132h603v-221z" glyph-name="Ecircumflex" horiz-adv-x="653" unicode="Ê"/>
<glyph d="M212 734q-43 0 -63 38q-9 17 -9 35q0 41 37 62q17 9 35 9q42 0 63 -37q9 -17 9 -34q0 -43 -38 -64q-16 -9 -34 -9zM442 734q-43 0 -64 38q-9 17 -9 35q0 40 37 61q17 10 36 10q41 0 62 -37q9 -16 9 -34q0 -43 -37 -64q-16 -9 -34 -9zM25 567v132h603v-221h-173v89h-160 v-138h190v-133h-190v-163h160v93h173v-226h-603v133h63v434h-63z" glyph-name="Edieresis" horiz-adv-x="653" unicode="Ë"/>
<glyph d="M40 898l152 20l150 -115l-112 -20zM25 567v132h332v-132h-62v-434h62v-133h-332v133h63v434h-63z" glyph-name="Igrave" horiz-adv-x="382" unicode="Ì"/>
<glyph d="M342 898l-190 -115l-112 20l150 115zM25 567v132h332v-132h-62v-434h62v-133h-332v133h63v434h-63z" glyph-name="Iacute" horiz-adv-x="382" unicode="Í"/>
<glyph d="M191 836l-66 -88l-116 35l135 115h93l135 -115l-116 -35zM25 567v132h332v-132h-62v-434h62v-133h-332v133h63v434h-63z" glyph-name="Icircumflex" horiz-adv-x="382" unicode="Î"/>
<glyph d="M76 734q-43 0 -63 38q-9 17 -9 35q0 41 37 62q17 9 35 9q42 0 63 -37q9 -17 9 -34q0 -43 -38 -64q-16 -9 -34 -9zM306 734q-43 0 -64 38q-9 17 -9 35q0 40 37 61q17 10 36 10q41 0 62 -37q9 -16 9 -34q0 -43 -37 -64q-16 -9 -34 -9zM25 567v132h332v-132h-62v-434h62 v-133h-332v133h63v434h-63z" glyph-name="Idieresis" horiz-adv-x="382" unicode="Ï"/>
<glyph d="M330 699q197 0 302 -121q78 -90 78 -219q0 -220 -159 -308q-92 -51 -225 -51h-301v133h62v145h-92v132h92v157h-62v132h305zM330 133q107 2 139 126q11 45 11 100q0 124 -64 178q-36 30 -86 30h-38v-157h110v-132h-110v-145h38z" glyph-name="Eth" horiz-adv-x="720" unicode="Ð"/>
<glyph d="M475 753q-37 -1 -75 36q-28 28 -41 30h-8q-20 -2 -41 -42q-4 -8 -5 -12l-71 43q27 92 101 98h4q38 2 76 -36q28 -28 41 -30h8q21 2 44 48l3 6l70 -43q-30 -94 -106 -98zM791 699v-129h-66v-570h-215l-255 381v-252h77v-129h-307v129h59v441h-58v129h287l246 -367l-1 238 h-68v129h301z" glyph-name="Ntilde" horiz-adv-x="816" unicode="Ñ"/>
<glyph d="M219 898l152 20l150 -115l-112 -20zM373 -18q-197 0 -291 130q-67 95 -67 241q0 172 109 274q97 91 242 91q242 0 323 -182q36 -81 36 -190q0 -213 -138 -306q-87 -58 -214 -58zM373 139q59 0 86 85q16 52 16 122q0 161 -65 205q-21 13 -45 13q-54 1 -83 -80 q-20 -55 -20 -131q0 -137 58 -191q24 -23 53 -23z" glyph-name="Ograve" horiz-adv-x="740" unicode="Ò"/>
<glyph d="M521 898l-190 -115l-112 20l150 115zM373 -18q-197 0 -291 130q-67 95 -67 241q0 172 109 274q97 91 242 91q242 0 323 -182q36 -81 36 -190q0 -213 -138 -306q-87 -58 -214 -58zM373 139q59 0 86 85q16 52 16 122q0 161 -65 205q-21 13 -45 13q-54 1 -83 -80 q-20 -55 -20 -131q0 -137 58 -191q24 -23 53 -23z" glyph-name="Oacute" horiz-adv-x="740" unicode="Ó"/>
<glyph d="M370 836l-66 -88l-116 35l135 115h93l135 -115l-116 -35zM366 718q242 0 323 -182q36 -81 36 -190q0 -213 -138 -306q-87 -58 -214 -58q-197 0 -291 130q-67 95 -67 241q0 172 109 274q97 91 242 91zM373 139q59 0 86 85q16 52 16 122q0 161 -65 205q-21 13 -45 13 q-54 1 -83 -80q-20 -55 -20 -131q0 -137 58 -191q24 -23 53 -23z" glyph-name="Ocircumflex" horiz-adv-x="740" unicode="Ô"/>
<glyph d="M437 753q-37 -1 -75 36q-28 28 -41 30h-8q-20 -2 -41 -42q-4 -8 -5 -12l-71 43q27 92 101 98h4q38 2 76 -36q28 -28 41 -30h8q21 2 44 48l3 6l70 -43q-30 -94 -106 -98zM373 -18q-197 0 -291 130q-67 95 -67 241q0 172 109 274q97 91 242 91q242 0 323 -182 q36 -81 36 -190q0 -213 -138 -306q-87 -58 -214 -58zM373 139q59 0 86 85q16 52 16 122q0 161 -65 205q-21 13 -45 13q-54 1 -83 -80q-20 -55 -20 -131q0 -137 58 -191q24 -23 53 -23z" glyph-name="Otilde" horiz-adv-x="740" unicode="Õ"/>
<glyph d="M255 734q-43 0 -63 38q-9 17 -9 35q0 41 37 62q17 9 35 9q42 0 63 -37q9 -17 9 -34q0 -43 -38 -64q-16 -9 -34 -9zM485 734q-43 0 -64 38q-9 17 -9 35q0 40 37 61q17 10 36 10q41 0 62 -37q9 -16 9 -34q0 -43 -37 -64q-16 -9 -34 -9zM373 -18q-197 0 -291 130 q-67 95 -67 241q0 172 109 274q97 91 242 91q242 0 323 -182q36 -81 36 -190q0 -213 -138 -306q-87 -58 -214 -58zM373 139q59 0 86 85q16 52 16 122q0 161 -65 205q-21 13 -45 13q-54 1 -83 -80q-20 -55 -20 -131q0 -137 58 -191q24 -23 53 -23z" glyph-name="Odieresis" horiz-adv-x="740" unicode="Ö"/>
<glyph d="M633 621q92 -97 92 -275q0 -213 -138 -306q-87 -58 -214 -58q-84 0 -153 26l-36 -53l-100 36l47 69q-116 98 -116 293q0 172 109 274q97 91 242 91q106 0 183 -37l37 55l100 -36zM262 353q0 -46 8 -86l169 251q-28 45 -74 46q-54 1 -83 -80q-20 -55 -20 -131zM373 139 q59 0 86 85q16 52 16 122q0 26 -1 39l-152 -225q22 -21 51 -21z" glyph-name="Oslash" horiz-adv-x="740" unicode="Ø"/>
<glyph d="M228 898l152 20l150 -115l-112 -20zM15 569v130h318v-129h-54v-215q0 -156 53 -186q19 -10 47 -10q60 0 82 52q19 47 19 144v212h-54v132h296v-129h-54v-245q0 -248 -142 -314q-60 -28 -147 -28q-307 2 -308 342v244h-56z" glyph-name="Ugrave" horiz-adv-x="737" unicode="Ù"/>
<glyph d="M530 898l-190 -115l-112 20l150 115zM15 569v130h318v-129h-54v-215q0 -156 53 -186q19 -10 47 -10q60 0 82 52q19 47 19 144v212h-54v132h296v-129h-54v-245q0 -248 -142 -314q-60 -28 -147 -28q-307 2 -308 342v244h-56z" glyph-name="Uacute" horiz-adv-x="737" unicode="Ú"/>
<glyph d="M379 836l-66 -88l-116 35l135 115h93l135 -115l-116 -35zM426 699h296v-129h-54v-245q0 -248 -142 -314q-60 -28 -147 -28q-307 2 -308 342v244h-56v130h318v-129h-54v-215q0 -156 53 -186q19 -10 47 -10q60 0 82 52q19 47 19 144v212h-54v132z" glyph-name="Ucircumflex" horiz-adv-x="737" unicode="Û"/>
<glyph d="M264 734q-43 0 -63 38q-9 17 -9 35q0 41 37 62q17 9 35 9q42 0 63 -37q9 -17 9 -34q0 -43 -38 -64q-16 -9 -34 -9zM494 734q-43 0 -64 38q-9 17 -9 35q0 40 37 61q17 10 36 10q41 0 62 -37q9 -16 9 -34q0 -43 -37 -64q-16 -9 -34 -9zM15 569v130h318v-129h-54v-215 q0 -156 53 -186q19 -10 47 -10q60 0 82 52q19 47 19 144v212h-54v132h296v-129h-54v-245q0 -248 -142 -314q-60 -28 -147 -28q-307 2 -308 342v244h-56z" glyph-name="Udieresis" horiz-adv-x="737" unicode="Ü"/>
<glyph d="M486 898l-190 -115l-112 20l150 115zM369 384h4q3 12 37 86l55 101h-55v128h269v-128h-54l-185 -325v-116h56v-130h-320v130h57v118l-194 323h-49v128h342v-128h-52l58 -106q3 -8 14 -36q15 -35 17 -45z" glyph-name="Yacute" horiz-adv-x="669" unicode="Ý"/>
<glyph d="M477 529q166 0 205 -86q15 -35 15 -85q0 -127 -90 -166q-49 -21 -127 -21h-135v-38h112v-133h-432v133h113v434h-113v132h432v-132h-112v-38h132zM390 305q83 0 99 26q6 11 6 25q0 37 -38 46q-24 6 -68 6h-44v-103h45z" glyph-name="Thorn" horiz-adv-x="707" unicode="Þ"/>
<glyph d="M559 383q133 -58 134 -184q-2 -219 -248 -220q-15 0 -31 1.5t-28 4t-22 5t-16 4.5l-5 2v142q25 -16 66 -16q77 0 86 71q1 12 1 27q0 72 -56 101q-22 11 -49 13v98q72 15 91 74q4 15 4 29q0 36 -41 58q-23 11 -48 11q-81 0 -98 -76q-4 -18 -4 -40v-488h-270v133h63v332 q0 222 186 276q54 15 120 15q134 0 206 -81q53 -59 53 -143q-1 -104 -94 -149z" glyph-name="germandbls" horiz-adv-x="718" unicode="ß"/>
<glyph d="M149 699l152 20l150 -115l-112 -20zM78 342l-42 116q119 71 218 71q148 0 220 -73q51 -53 51 -133v-195h60v-128h-214l-24 45q-42 -59 -125 -64h-10q-100 0 -156 59q-41 44 -41 108q0 97 83 150q54 34 125 34q61 0 96 -32l3 -3v35q-7 54 -95 56q-66 0 -149 -46zM258 111 q39 0 61 29q2 2 3 4v38q-19 28 -59 29q-55 -5 -58 -53q0 -34 34 -44q9 -3 19 -3z" glyph-name="agrave" unicode="à"/>
<glyph d="M451 699l-190 -115l-112 20l150 115zM78 342l-42 116q119 71 218 71q148 0 220 -73q51 -53 51 -133v-195h60v-128h-214l-24 45q-42 -59 -125 -64h-10q-100 0 -156 59q-41 44 -41 108q0 97 83 150q54 34 125 34q61 0 96 -32l3 -3v35q-7 54 -95 56q-66 0 -149 -46zM258 111 q39 0 61 29q2 2 3 4v38q-19 28 -59 29q-55 -5 -58 -53q0 -34 34 -44q9 -3 19 -3z" glyph-name="aacute" unicode="á"/>
<glyph d="M300 637l-66 -88l-116 35l135 115h93l135 -115l-116 -35zM525 128h60v-128h-214l-24 45q-42 -59 -125 -64h-10q-100 0 -156 59q-41 44 -41 108q0 97 83 150q54 34 125 34q61 0 96 -32l3 -3v35q-7 54 -95 56q-66 0 -149 -46l-42 116q119 71 218 71q148 0 220 -73 q51 -53 51 -133v-195zM322 144v38q-19 28 -59 29q-55 -5 -58 -53q0 -34 34 -44q9 -3 19 -3q39 0 61 29q2 2 3 4z" glyph-name="acircumflex" unicode="â"/>
<glyph d="M367 554q-37 -1 -75 36q-28 28 -41 30h-8q-20 -2 -41 -42q-4 -8 -5 -12l-71 43q27 92 101 98h4q38 2 76 -36q28 -28 41 -30h8q21 2 44 48l3 6l70 -43q-30 -94 -106 -98zM78 342l-42 116q119 71 218 71q148 0 220 -73q51 -53 51 -133v-195h60v-128h-214l-24 45 q-42 -59 -125 -64h-10q-100 0 -156 59q-41 44 -41 108q0 97 83 150q54 34 125 34q61 0 96 -32l3 -3v35q-7 54 -95 56q-66 0 -149 -46zM258 111q39 0 61 29q2 2 3 4v38q-19 28 -59 29q-55 -5 -58 -53q0 -34 34 -44q9 -3 19 -3z" glyph-name="atilde" unicode="ã"/>
<glyph d="M185 535q-43 0 -63 38q-9 17 -9 35q0 41 37 62q17 9 35 9q42 0 63 -37q9 -17 9 -34q0 -43 -38 -64q-16 -9 -34 -9zM415 535q-43 0 -64 38q-9 17 -9 35q0 40 37 61q17 10 36 10q41 0 62 -37q9 -16 9 -34q0 -43 -37 -64q-16 -9 -34 -9zM78 342l-42 116q119 71 218 71 q148 0 220 -73q51 -53 51 -133v-195h60v-128h-214l-24 45q-42 -59 -125 -64h-10q-100 0 -156 59q-41 44 -41 108q0 97 83 150q54 34 125 34q61 0 96 -32l3 -3v35q-7 54 -95 56q-66 0 -149 -46zM258 111q39 0 61 29q2 2 3 4v38q-19 28 -59 29q-55 -5 -58 -53q0 -34 34 -44 q9 -3 19 -3z" glyph-name="adieresis" unicode="ä"/>
<glyph d="M300 530q-55 0 -86 47q-16 26 -16 55q0 55 47 86q26 16 55 16q55 0 86 -47q16 -26 16 -55q0 -55 -47 -86q-26 -16 -55 -16zM300 595q24 0 34 23q3 7 3 14q0 24 -23 34q-7 3 -14 3q-24 0 -34 -23q-3 -7 -3 -14q0 -24 23 -34q7 -3 14 -3zM78 342l-42 116q119 71 218 71 q148 0 220 -73q51 -53 51 -133v-195h60v-128h-214l-24 45q-42 -59 -125 -64h-10q-100 0 -156 59q-41 44 -41 108q0 97 83 150q54 34 125 34q61 0 96 -32l3 -3v35q-7 54 -95 56q-66 0 -149 -46zM258 111q39 0 61 29q2 2 3 4v38q-19 28 -59 29q-55 -5 -58 -53q0 -34 34 -44 q9 -3 19 -3z" glyph-name="aring" unicode="å"/>
<glyph d="M853 69q-95 -83 -239 -87h-19q-103 1 -178 63q-81 -64 -205 -64q-100 0 -156 59q-41 44 -41 108q0 97 83 150q54 34 125 34q61 0 96 -32l3 -3v35q-7 54 -95 56q-66 0 -149 -46l-42 116q119 71 218 71q114 -1 183 -62q69 47 163 47q124 0 197 -76q29 -32 42 -69 q22 -63 11 -133q-3 -20 -9 -36h-315q13 -60 58 -75q20 -7 45 -7q83 1 140 48zM606 379q-60 0 -74 -63q-2 -9 -3 -17h151q-2 67 -51 78q-11 2 -23 2zM322 144v38q-19 28 -59 29q-55 -5 -58 -53q0 -34 34 -44q9 -3 19 -3q39 0 61 29q2 2 3 4z" glyph-name="ae" horiz-adv-x="878" unicode="æ"/>
<glyph d="M521 88q-65 -71 -172 -94q-36 -8 -71 -8l-2 -42q13 23 49 31q9 2 17 3q59 4 90 -41q18 -26 18 -61q0 -70 -68 -102q-33 -15 -69 -15q-77 0 -119 43l-2 2l49 47q22 -22 68 -21q50 7 52 41q-2 40 -38 41q-24 0 -37 -20q-2 -4 -3 -7l-65 12l8 93q-128 18 -187 116 q-38 63 -38 147q0 156 112 222q59 34 134 34q77 0 125 -57l17 48h118v-226h-147q-4 90 -50 103q-7 2 -13 2q-57 0 -79 -68q-9 -28 -9 -60q0 -72 51 -103q23 -14 52 -15q68 0 121 57z" glyph-name="ccedilla" horiz-adv-x="531" unicode="ç"/>
<glyph d="M120 699l152 20l150 -115l-112 -20zM443 166l84 -97q-95 -83 -239 -87h-19q-114 0 -189 73q-75 74 -75 198q0 139 101 211q71 50 168 50q124 0 197 -76q29 -32 42 -69q22 -63 11 -133q-3 -20 -9 -36h-315q13 -60 58 -75q20 -7 45 -7q83 1 140 48zM280 379q-60 0 -74 -63 q-2 -9 -3 -17h151q-2 67 -51 78q-11 2 -23 2z" glyph-name="egrave" horiz-adv-x="542" unicode="è"/>
<glyph d="M422 699l-190 -115l-112 20l150 115zM443 166l84 -97q-95 -83 -239 -87h-19q-114 0 -189 73q-75 74 -75 198q0 139 101 211q71 50 168 50q124 0 197 -76q29 -32 42 -69q22 -63 11 -133q-3 -20 -9 -36h-315q13 -60 58 -75q20 -7 45 -7q83 1 140 48zM280 379q-60 0 -74 -63 q-2 -9 -3 -17h151q-2 67 -51 78q-11 2 -23 2z" glyph-name="eacute" horiz-adv-x="542" unicode="é"/>
<glyph d="M271 637l-66 -88l-116 35l135 115h93l135 -115l-116 -35zM443 166l84 -97q-95 -83 -239 -87h-19q-114 0 -189 73q-75 74 -75 198q0 139 101 211q71 50 168 50q124 0 197 -76q29 -32 42 -69q22 -63 11 -133q-3 -20 -9 -36h-315q13 -60 58 -75q20 -7 45 -7q83 1 140 48z M280 379q-60 0 -74 -63q-2 -9 -3 -17h151q-2 67 -51 78q-11 2 -23 2z" glyph-name="ecircumflex" horiz-adv-x="542" unicode="ê"/>
<glyph d="M156 535q-43 0 -63 38q-9 17 -9 35q0 41 37 62q17 9 35 9q42 0 63 -37q9 -17 9 -34q0 -43 -38 -64q-16 -9 -34 -9zM386 535q-43 0 -64 38q-9 17 -9 35q0 40 37 61q17 10 36 10q41 0 62 -37q9 -16 9 -34q0 -43 -37 -64q-16 -9 -34 -9zM443 166l84 -97q-95 -83 -239 -87 h-19q-114 0 -189 73q-75 74 -75 198q0 139 101 211q71 50 168 50q124 0 197 -76q29 -32 42 -69q22 -63 11 -133q-3 -20 -9 -36h-315q13 -60 58 -75q20 -7 45 -7q83 1 140 48zM280 379q-60 0 -74 -63q-2 -9 -3 -17h151q-2 67 -51 78q-11 2 -23 2z" glyph-name="edieresis" horiz-adv-x="542" unicode="ë"/>
<glyph d="M14 699l152 20l150 -115l-112 -20zM305 131v-131h-280v131h42v239h-42v130h232v-369h48z" glyph-name="igrave" horiz-adv-x="330" unicode="ì"/>
<glyph d="M316 699l-190 -115l-112 20l150 115zM305 131v-131h-280v131h42v239h-42v130h232v-369h48z" glyph-name="iacute" horiz-adv-x="330" unicode="í"/>
<glyph d="M165 637l-66 -88l-116 35l135 115h93l135 -115l-116 -35zM257 500v-369h48v-131h-280v131h42v239h-42v130h232z" glyph-name="icircumflex" horiz-adv-x="330" unicode="î"/>
<glyph d="M50 535q-43 0 -63 38q-9 17 -9 35q0 41 37 62q17 9 35 9q42 0 63 -37q9 -17 9 -34q0 -43 -38 -64q-16 -9 -34 -9zM280 535q-43 0 -64 38q-9 17 -9 35q0 40 37 61q17 10 36 10q41 0 62 -37q9 -16 9 -34q0 -43 -37 -64q-16 -9 -34 -9zM305 131v-131h-280v131h42v239h-42 v130h232v-369h48z" glyph-name="idieresis" horiz-adv-x="330" unicode="ï"/>
<glyph d="M563 248q2 -139 -102 -211q-72 -50 -171 -50q-127 0 -206 77q-74 73 -73 188q1 133 104 207q75 53 170 53q34 0 65 -6q-13 69 -78 110l-45 -72l-61 36l41 66q-35 12 -69 16l59 114q39 -7 78 -20l29 48l61 -36l-24 -39q166 -83 207 -292q15 -81 15 -189zM290 115 q43 0 60 67q8 30 8 66q0 95 -44 125q-14 8 -29 9q-37 0 -57 -56q-12 -34 -12 -75q0 -92 43 -125q15 -11 31 -11z" glyph-name="eth" horiz-adv-x="583" unicode="ð"/>
<glyph d="M391 554q-37 -1 -75 36q-28 28 -41 30h-8q-20 -2 -41 -42q-4 -8 -5 -12l-71 43q27 92 101 98h4q38 2 76 -36q28 -28 41 -30h8q21 2 44 48l3 6l70 -43q-30 -94 -106 -98zM333 131v-131h-308v131h42v239h-42v130h213l23 -62q59 79 143 80q167 0 180 -184q1 -17 1 -36v-167 h47v-131h-252v273q0 58 -15 76q-15 17 -41 17q-62 -1 -63 -93v-142h72z" glyph-name="ntilde" horiz-adv-x="647" unicode="ñ"/>
<glyph d="M136 699l152 20l150 -115l-112 -20zM290 -13q-127 0 -206 77q-74 73 -73 188q1 133 104 207q75 53 170 53q147 -2 223 -97q53 -68 55 -167q2 -139 -102 -211q-72 -50 -171 -50zM290 115q43 0 60 67q8 30 8 66q0 95 -44 125q-14 8 -29 9q-37 0 -57 -56q-12 -34 -12 -75 q0 -92 43 -125q15 -11 31 -11z" glyph-name="ograve" horiz-adv-x="574" unicode="ò"/>
<glyph d="M438 699l-190 -115l-112 20l150 115zM290 -13q-127 0 -206 77q-74 73 -73 188q1 133 104 207q75 53 170 53q147 -2 223 -97q53 -68 55 -167q2 -139 -102 -211q-72 -50 -171 -50zM290 115q43 0 60 67q8 30 8 66q0 95 -44 125q-14 8 -29 9q-37 0 -57 -56q-12 -34 -12 -75 q0 -92 43 -125q15 -11 31 -11z" glyph-name="oacute" horiz-adv-x="574" unicode="ó"/>
<glyph d="M287 637l-66 -88l-116 35l135 115h93l135 -115l-116 -35zM563 248q2 -139 -102 -211q-72 -50 -171 -50q-127 0 -206 77q-74 73 -73 188q1 133 104 207q75 53 170 53q147 -2 223 -97q53 -68 55 -167zM290 115q43 0 60 67q8 30 8 66q0 95 -44 125q-14 8 -29 9 q-37 0 -57 -56q-12 -34 -12 -75q0 -92 43 -125q15 -11 31 -11z" glyph-name="ocircumflex" horiz-adv-x="574" unicode="ô"/>
<glyph d="M354 554q-37 -1 -75 36q-28 28 -41 30h-8q-20 -2 -41 -42q-4 -8 -5 -12l-71 43q27 92 101 98h4q38 2 76 -36q28 -28 41 -30h8q21 2 44 48l3 6l70 -43q-30 -94 -106 -98zM290 -13q-127 0 -206 77q-74 73 -73 188q1 133 104 207q75 53 170 53q147 -2 223 -97 q53 -68 55 -167q2 -139 -102 -211q-72 -50 -171 -50zM290 115q43 0 60 67q8 30 8 66q0 95 -44 125q-14 8 -29 9q-37 0 -57 -56q-12 -34 -12 -75q0 -92 43 -125q15 -11 31 -11z" glyph-name="otilde" horiz-adv-x="574" unicode="õ"/>
<glyph d="M172 535q-43 0 -63 38q-9 17 -9 35q0 41 37 62q17 9 35 9q42 0 63 -37q9 -17 9 -34q0 -43 -38 -64q-16 -9 -34 -9zM402 535q-43 0 -64 38q-9 17 -9 35q0 40 37 61q17 10 36 10q41 0 62 -37q9 -16 9 -34q0 -43 -37 -64q-16 -9 -34 -9zM290 -13q-127 0 -206 77 q-74 73 -73 188q1 133 104 207q75 53 170 53q147 -2 223 -97q53 -68 55 -167q2 -139 -102 -211q-72 -50 -171 -50zM290 115q43 0 60 67q8 30 8 66q0 95 -44 125q-14 8 -29 9q-37 0 -57 -56q-12 -34 -12 -75q0 -92 43 -125q15 -11 31 -11z" glyph-name="odieresis" horiz-adv-x="574" unicode="ö"/>
<glyph d="M563 248q2 -139 -102 -211q-72 -50 -171 -50q-61 0 -116 21l-35 -53l-75 27l42 63q-96 75 -95 207q1 133 104 207q75 53 170 53q70 -2 121 -23l34 50l74 -27l-42 -62q88 -72 91 -202zM216 251q0 -21 3 -40l104 154q-18 17 -38 17q-37 0 -57 -56q-12 -34 -12 -75zM290 115 q43 0 60 67q8 30 8 66q0 20 -1 30l-101 -149q16 -14 34 -14z" glyph-name="oslash" horiz-adv-x="574" unicode="ø"/>
<glyph d="M165 699l152 20l150 -115l-112 -20zM15 368v132h242v-241q0 -107 35 -122q9 -4 19 -4q39 0 56 39q7 18 7 37v159h-66v132h259v-367h49v-133h-189l-27 63q-32 -36 -46 -47q-41 -30 -96 -30q-135 0 -176 92q-25 55 -25 152v138h-42z" glyph-name="ugrave" horiz-adv-x="631" unicode="ù"/>
<glyph d="M467 699l-190 -115l-112 20l150 115zM15 368v132h242v-241q0 -107 35 -122q9 -4 19 -4q39 0 56 39q7 18 7 37v159h-66v132h259v-367h49v-133h-189l-27 63q-32 -36 -46 -47q-41 -30 -96 -30q-135 0 -176 92q-25 55 -25 152v138h-42z" glyph-name="uacute" horiz-adv-x="631" unicode="ú"/>
<glyph d="M316 637l-66 -88l-116 35l135 115h93l135 -115l-116 -35zM567 133h49v-133h-189l-27 63q-32 -36 -46 -47q-41 -30 -96 -30q-135 0 -176 92q-25 55 -25 152v138h-42v132h242v-241q0 -107 35 -122q9 -4 19 -4q39 0 56 39q7 18 7 37v159h-66v132h259v-367z" glyph-name="ucircumflex" horiz-adv-x="631" unicode="û"/>
<glyph d="M201 535q-43 0 -63 38q-9 17 -9 35q0 41 37 62q17 9 35 9q42 0 63 -37q9 -17 9 -34q0 -43 -38 -64q-16 -9 -34 -9zM431 535q-43 0 -64 38q-9 17 -9 35q0 40 37 61q17 10 36 10q41 0 62 -37q9 -16 9 -34q0 -43 -37 -64q-16 -9 -34 -9zM15 368v132h242v-241q0 -107 35 -122 q9 -4 19 -4q39 0 56 39q7 18 7 37v159h-66v132h259v-367h49v-133h-189l-27 63q-32 -36 -46 -47q-41 -30 -96 -30q-135 0 -176 92q-25 55 -25 152v138h-42z" glyph-name="udieresis" horiz-adv-x="631" unicode="ü"/>
<glyph d="M441 699l-190 -115l-112 20l150 115zM317 217l65 156h-46v127h254v-124h-48l-190 -462q-34 -74 -76 -103q-54 -38 -139 -38q-68 5 -121 50l75 118q34 -29 58 -34q37 -7 59 40q3 7 5 13l14 42l-195 370h-41v128h308v-127h-47z" glyph-name="yacute" horiz-adv-x="580" unicode="ý"/>
<glyph d="M323 -250h-292v130h42v739h-42v131h242v-289q27 32 95 44q19 3 36 3q123 0 187 -101q45 -70 43 -161q-3 -146 -95 -215q-57 -42 -136 -42q-74 0 -117 34q-6 5 -13 11v-154h50v-130zM414 244q0 69 -35 105q-17 18 -37 18q-38 0 -59 -49q-14 -34 -12 -79q0 -71 38 -105 q17 -15 34 -15q44 0 63 61q8 29 8 64z" glyph-name="thorn" horiz-adv-x="656" unicode="þ"/>
</font>
</defs>
</svg>
